<svg aria-hidden="true" style="position: absolute; width: 0; height: 0; overflow: hidden;" version="1.1" xmlns="http://www.w3.org/2000/svg" xmlns:xlink="http://www.w3.org/1999/xlink">
<defs>
<symbol id="icon-checked-checkbox" viewBox="0 0 34 32">
<path fill="#2196f3" style="fill: var(--color1, #2196f3)" d="M4.267 0h25.6c2.356 0 4.267 1.91 4.267 4.267v23.467c0 2.356-1.91 4.267-4.267 4.267h-25.6c-2.356 0-4.267-1.91-4.267-4.267v-23.467c0-2.356 1.91-4.267 4.267-4.267z"></path>
<path fill="#fff" style="fill: var(--color2, #fff); stroke: var(--color2, #fff)" stroke="#fff" stroke-linejoin="miter" stroke-linecap="butt" stroke-miterlimit="4" stroke-width="0.4267" d="M8.442 16.537l-0.147-0.14-2.205 2.088 7.767 7.41 16.318-15.567-2.19-2.089-14.128 13.465-5.416-5.167z"></path>
</symbol>

<symbol id="icon-checkbox" viewBox="0 0 34 32">
<path d="M30.341 3.556v24.889h-26.548v-24.889h26.548zM30.341 0h-26.548c-2.086 0-3.793 1.6-3.793 3.556v24.889c0 1.956 1.707 3.556 3.793 3.556h26.548c2.086 0 3.793-1.6 3.793-3.556v-24.889c0-1.956-1.707-3.556-3.793-3.556z"></path>
</symbol>

<symbol id="icon-send" viewBox="0 0 32 32">
<path fill="#fff" style="fill: var(--color1, #fff)" d="M32 0l-32 18 10.227 3.788 15.773-14.788-11.998 16.186 0.010 0.004-0.012-0.004v8.814l5.735-6.691 7.265 2.691 5-28z"></path>
</symbol>

<svg aria-hidden="true" style="position: absolute; width: 0; height: 0; overflow: hidden;" version="1.1" xmlns="http://www.w3.org/2000/svg" xmlns:xlink="http://www.w3.org/1999/xlink">
<defs>
<symbol id="icon-checked-checkbox" viewBox="0 0 34 32">
<path fill="#2196f3" style="fill: var(--color1, #2196f3)" d="M4.267 0h25.6c2.356 0 4.267 1.91 4.267 4.267v23.467c0 2.356-1.91 4.267-4.267 4.267h-25.6c-2.356 0-4.267-1.91-4.267-4.267v-23.467c0-2.356 1.91-4.267 4.267-4.267z"></path>
<path fill="#fff" style="fill: var(--color2, #fff); stroke: var(--color2, #fff)" stroke="#fff" stroke-linejoin="miter" stroke-linecap="butt" stroke-miterlimit="4" stroke-width="0.4267" d="M8.442 16.537l-0.147-0.14-2.205 2.088 7.767 7.41 16.318-15.567-2.19-2.089-14.128 13.465-5.416-5.167z"></path>
</symbol>

<symbol id="icon-checkbox" viewBox="0 0 34 32">
<path d="M30.341 3.556v24.889h-26.548v-24.889h26.548zM30.341 0h-26.548c-2.086 0-3.793 1.6-3.793 3.556v24.889c0 1.956 1.707 3.556 3.793 3.556h26.548c2.086 0 3.793-1.6 3.793-3.556v-24.889c0-1.956-1.707-3.556-3.793-3.556z"></path>
</symbol>

<symbol id="icon-icon-send" viewBox="0 0 32 32">
<path fill="#fff" style="fill: var(--color1, #fff)" d="M32 0l-32 18 10.227 3.788 15.773-14.788-11.998 16.186 0.010 0.004-0.012-0.004v8.814l5.735-6.691 7.265 2.691 5-28z"></path>
</symbol>

<symbol id="icon-email-black-18dp-1" viewBox="0 0 32 32">
<path d="M26.667 5.333h-21.333c-1.467 0-2.653 1.2-2.653 2.667l-0.013 16c0 1.467 1.2 2.667 2.667 2.667h21.333c1.467 0 2.667-1.2 2.667-2.667v-16c0-1.467-1.2-2.667-2.667-2.667zM26.133 11l-9.427 5.893c-0.427 0.267-0.987 0.267-1.413 0l-9.427-5.893c-0.333-0.213-0.533-0.573-0.533-0.96 0-0.893 0.973-1.427 1.733-0.96l8.933 5.587 8.933-5.587c0.76-0.467 1.733 0.067 1.733 0.96 0 0.387-0.2 0.747-0.533 0.96z"></path>
</symbol>

<symbol id="icon-person-black-18dp-1" viewBox="0 0 32 32">
<path d="M16 16c2.947 0 5.333-2.387 5.333-5.333s-2.387-5.333-5.333-5.333c-2.947 0-5.333 2.387-5.333 5.333s2.387 5.333 5.333 5.333zM16 18.667c-3.56 0-10.667 1.787-10.667 5.333v1.333c0 0.733 0.6 1.333 1.333 1.333h18.667c0.733 0 1.333-0.6 1.333-1.333v-1.333c0-3.547-7.107-5.333-10.667-5.333z"></path>
</symbol>

<symbol id="icon-phone-black-18dp-1" viewBox="0 0 32 32">
<path d="M24.882 19.773l-3.268-0.373c-0.785-0.090-1.557 0.18-2.11 0.733l-2.367 2.367c-3.641-1.853-6.626-4.825-8.478-8.478l2.38-2.38c0.553-0.553 0.823-1.325 0.733-2.11l-0.373-3.242c-0.154-1.299-1.248-2.277-2.56-2.277h-2.226c-1.454 0-2.663 1.209-2.573 2.663 0.682 10.987 9.469 19.761 20.443 20.443 1.454 0.090 2.663-1.119 2.663-2.573v-2.226c0.013-1.3-0.965-2.393-2.264-2.547z"></path>
</symbol>

<symbol id="icon-Vector" viewBox="0 0 47 32">
<path stroke-linejoin="round" stroke-linecap="round" stroke-miterlimit="4" stroke-width="4.3636" d="M1.96 29.154h42.965M1.96 15.615h42.965M1.96 2.077h42.965"></path>
</symbol>

<symbol id="icon-close" viewBox="0 0 32 32">
<path fill="#e7e9fc" style="fill: var(--color1, #e7e9fc); stroke: var(--color2, #2e2f42)" opacity="0.1" stroke="#2e2f42" stroke-linejoin="miter" stroke-linecap="butt" stroke-miterlimit="4" stroke-width="1.3333" d="M31.333 16c0 8.468-6.865 15.333-15.333 15.333s-15.333-6.865-15.333-15.333c0-8.468 6.865-15.333 15.333-15.333s15.333 6.865 15.333 15.333z"></path>
<path fill="#2e2f42" style="fill: var(--color2, #2e2f42)" d="M21.333 11.741l-1.074-1.074-4.259 4.259-4.259-4.259-1.074 1.074 4.259 4.259-4.259 4.259 1.074 1.074 4.259-4.259 4.259 4.259 1.074-1.074-4.259-4.259 4.259-4.259z"></path>
</symbol>

<symbol id="icon-Ellipse-4" viewBox="0 0 32 32">
<path fill="#4d5ae5" style="fill: var(--color1, #4d5ae5)" d="M32 16c0 4.418-1.791 8.418-4.686 11.314s-6.895 4.686-11.314 4.686c-4.418 0-8.418-1.791-11.314-4.686s-4.686-6.895-4.686-11.314c0-4.418 1.791-8.418 4.686-11.314s6.895-4.686 11.314-4.686c4.418 0 8.418 1.791 11.314 4.686s4.686 6.895 4.686 11.314z"></path>
<path fill="#f4f4fd" style="fill: var(--color2, #f4f4fd)" d="M25.595 25.6v-0.001h0.005v-7.042c0-3.445-0.742-6.098-4.769-6.098-1.936 0-3.235 1.062-3.766 2.070h-0.056v-1.748h-3.818v12.818h3.976v-6.347c0-1.671 0.317-3.287 2.386-3.287 2.039 0 2.070 1.907 2.070 3.394v6.241h3.972z"></path>
<path fill="#f4f4fd" style="fill: var(--color2, #f4f4fd)" d="M6.717 12.782h3.981v12.818h-3.981v-12.818z"></path>
<path fill="#f4f4fd" style="fill: var(--color2, #f4f4fd)" d="M8.706 6.4c-1.273 0-2.306 1.033-2.306 2.306s1.033 2.327 2.306 2.327c1.273 0 2.306-1.054 2.306-2.327s-1.034-2.306-2.306-2.306v0z"></path>
</symbol>

<symbol id="icon-Ellipse-3" viewBox="0 0 32 32">
<path fill="#4d5ae5" style="fill: var(--color1, #4d5ae5)" d="M32 16c0 4.418-1.791 8.418-4.686 11.314s-6.895 4.686-11.314 4.686c-4.418 0-8.418-1.791-11.314-4.686s-4.686-6.895-4.686-11.314c0-4.418 1.791-8.418 4.686-11.314s6.895-4.686 11.314-4.686c4.418 0 8.418 1.791 11.314 4.686s4.686 6.895 4.686 11.314z"></path>
<path fill="#f4f4fd" style="fill: var(--color2, #f4f4fd)" d="M19.197 9.588h1.753v-3.053c-0.302-0.042-1.342-0.135-2.554-0.135-2.527 0-4.258 1.59-4.258 4.511v2.689h-2.789v3.413h2.789v8.587h3.419v-8.586h2.676l0.425-3.413h-3.102v-2.351c0.001-0.986 0.266-1.662 1.641-1.662z"></path>
</symbol>

<symbol id="icon-Ellipse-2" viewBox="0 0 32 32">
<path fill="#4d5ae5" style="fill: var(--color1, #4d5ae5)" d="M32 16c0 4.418-1.791 8.418-4.686 11.314s-6.895 4.686-11.314 4.686c-4.418 0-8.418-1.791-11.314-4.686s-4.686-6.895-4.686-11.314c0-4.418 1.791-8.418 4.686-11.314s6.895-4.686 11.314-4.686c4.418 0 8.418 1.791 11.314 4.686s4.686 6.895 4.686 11.314z"></path>
<path fill="#f4f4fd" style="fill: var(--color2, #f4f4fd)" d="M25.6 10.047c-0.714 0.313-1.475 0.521-2.268 0.622 0.816-0.487 1.439-1.253 1.732-2.176-0.761 0.454-1.601 0.774-2.496 0.953-0.722-0.769-1.752-1.246-2.875-1.246-2.179 0-3.934 1.769-3.934 3.937 0 0.312 0.026 0.612 0.091 0.898-3.272-0.16-6.168-1.728-8.113-4.117-0.34 0.589-0.539 1.264-0.539 1.99 0 1.363 0.702 2.572 1.748 3.271-0.632-0.012-1.253-0.196-1.778-0.485 0 0.012 0 0.028 0 0.043 0 1.913 1.364 3.502 3.154 3.868-0.32 0.088-0.67 0.13-1.032 0.13-0.252 0-0.506-0.014-0.745-0.067 0.51 1.559 1.957 2.705 3.678 2.742-1.339 1.048-3.040 1.679-4.88 1.679-0.323 0-0.632-0.014-0.942-0.054 1.744 1.124 3.81 1.766 6.038 1.766 7.243 0 11.203-6 11.203-11.201 0-0.174-0.006-0.342-0.014-0.509 0.781-0.554 1.438-1.247 1.973-2.044z"></path>
</symbol>

<symbol id="icon-Ellipse-1" viewBox="0 0 32 32">
<path fill="#4d5ae5" style="fill: var(--color1, #4d5ae5)" d="M32 16c0 4.418-1.791 8.418-4.686 11.314s-6.895 4.686-11.314 4.686c-4.418 0-8.418-1.791-11.314-4.686s-4.686-6.895-4.686-11.314c0-4.418 1.791-8.418 4.686-11.314s6.895-4.686 11.314-4.686c4.418 0 8.418 1.791 11.314 4.686s4.686 6.895 4.686 11.314z"></path>
<path fill="#f4f4fd" style="fill: var(--color2, #f4f4fd)" d="M25.581 12.045c-0.045-1.020-0.21-1.722-0.446-2.329-0.244-0.645-0.619-1.223-1.11-1.703-0.48-0.488-1.061-0.866-1.699-1.106-0.611-0.236-1.309-0.401-2.329-0.446-1.028-0.049-1.354-0.060-3.961-0.060s-2.933 0.011-3.957 0.056c-1.020 0.045-1.722 0.21-2.329 0.446-0.645 0.244-1.223 0.619-1.703 1.11-0.488 0.48-0.866 1.062-1.106 1.699-0.236 0.611-0.401 1.309-0.446 2.329-0.049 1.028-0.060 1.354-0.060 3.961s0.011 2.933 0.056 3.957c0.045 1.020 0.21 1.722 0.446 2.329 0.244 0.645 0.623 1.223 1.11 1.703 0.48 0.488 1.062 0.866 1.699 1.106 0.611 0.236 1.309 0.401 2.329 0.446 1.024 0.045 1.35 0.056 3.957 0.056s2.933-0.011 3.957-0.056c1.020-0.045 1.722-0.21 2.329-0.446 1.29-0.499 2.31-1.519 2.809-2.809 0.236-0.611 0.401-1.309 0.446-2.329 0.045-1.024 0.056-1.35 0.056-3.957s-0.004-2.933-0.049-3.957zM23.852 19.884c-0.041 0.938-0.199 1.444-0.33 1.782-0.323 0.836-0.986 1.5-1.823 1.823-0.338 0.131-0.848 0.289-1.782 0.33-1.013 0.045-1.316 0.056-3.878 0.056s-2.869-0.011-3.878-0.056c-0.938-0.041-1.444-0.199-1.782-0.33-0.416-0.154-0.795-0.398-1.103-0.716-0.319-0.311-0.563-0.686-0.716-1.103-0.131-0.338-0.289-0.848-0.33-1.782-0.045-1.013-0.056-1.317-0.056-3.878s0.011-2.869 0.056-3.878c0.041-0.938 0.199-1.444 0.33-1.782 0.154-0.416 0.398-0.795 0.72-1.103 0.311-0.319 0.686-0.563 1.103-0.716 0.338-0.131 0.848-0.289 1.782-0.33 1.013-0.045 1.317-0.056 3.878-0.056 2.566 0 2.869 0.011 3.878 0.056 0.938 0.041 1.444 0.199 1.782 0.33 0.416 0.154 0.795 0.397 1.103 0.716 0.319 0.311 0.563 0.686 0.716 1.103 0.131 0.338 0.289 0.848 0.33 1.782 0.045 1.013 0.056 1.316 0.056 3.878s-0.011 2.862-0.056 3.875z"></path>
<path fill="#f4f4fd" style="fill: var(--color2, #f4f4fd)" d="M16.035 11.070c-2.723 0-4.932 2.209-4.932 4.932s2.209 4.932 4.932 4.932c2.723 0 4.932-2.209 4.932-4.932s-2.209-4.932-4.932-4.932zM16.035 19.201c-1.767 0-3.199-1.433-3.199-3.199s1.433-3.199 3.199-3.199c1.767 0 3.199 1.433 3.199 3.199s-1.433 3.199-3.199 3.199z"></path>
<path fill="#f4f4fd" style="fill: var(--color2, #f4f4fd)" d="M22.315 10.875c0 0.636-0.516 1.151-1.152 1.151s-1.152-0.516-1.152-1.151c0-0.636 0.516-1.151 1.152-1.151s1.152 0.515 1.152 1.151z"></path>
</symbol>

<symbol id="icon-Logo-1" viewBox="0 0 63 32">
<path d="M23.345 2.286l3.907 3.909-7.252-0.005v18.965h18.955v-7.251l3.902 3.904v-19.523h-19.512zM38.783 17.445l-11.077-11.083h11.077v11.083zM35.344 22.381h-12.345v-12.755h0.873v11.891h11.472v0.864zM25.482 28.624l-0.472-0.97h-0.389l0.684 1.284v0.748h0.353v-0.748l0.684-1.284h-0.388l-0.472 0.97zM27.221 27.654h0.084l0.767 2.031h-0.368l-0.164-0.476h-0.786l-0.164 0.476h-0.367l0.765-2.031h0.234zM26.848 28.932h0.595l-0.298-0.862-0.297 0.862zM29.303 28.596c-0.015-0.019-0.030-0.038-0.044-0.057-0.052-0.069-0.093-0.135-0.121-0.2s-0.043-0.132-0.043-0.201c0-0.106 0.022-0.197 0.066-0.273s0.106-0.135 0.186-0.176c0.080-0.042 0.173-0.063 0.28-0.063 0.103 0 0.192 0.021 0.266 0.063s0.133 0.095 0.173 0.163c0.041 0.068 0.061 0.142 0.061 0.223 0 0.064-0.012 0.123-0.035 0.176s-0.055 0.101-0.096 0.145-0.088 0.085-0.142 0.124l-0.141 0.103 0.402 0.475c0.013-0.026 0.025-0.053 0.036-0.082 0.034-0.089 0.052-0.188 0.052-0.297h0.29c0 0.099-0.010 0.192-0.029 0.28s-0.049 0.17-0.091 0.246c-0.017 0.031-0.036 0.061-0.058 0.090l0.298 0.351h-0.389l-0.118-0.139c-0.064 0.048-0.133 0.086-0.208 0.114-0.099 0.035-0.204 0.053-0.315 0.053-0.135 0-0.252-0.025-0.35-0.074s-0.175-0.117-0.229-0.204c-0.053-0.086-0.080-0.186-0.080-0.297 0-0.083 0.017-0.155 0.052-0.218s0.081-0.122 0.141-0.176c0.055-0.050 0.118-0.1 0.188-0.15zM29.47 28.8l-0.042 0.031c-0.049 0.040-0.086 0.079-0.11 0.116s-0.039 0.070-0.046 0.1-0.011 0.058-0.011 0.081c0 0.060 0.012 0.113 0.038 0.162s0.064 0.087 0.113 0.116c0.050 0.028 0.111 0.042 0.183 0.042 0.077 0 0.152-0.017 0.225-0.052 0.036-0.018 0.071-0.039 0.104-0.064l-0.452-0.532zM29.55 28.429l0.125-0.084c0.059-0.039 0.1-0.077 0.126-0.114s0.038-0.086 0.038-0.142c0-0.048-0.019-0.093-0.056-0.134s-0.090-0.061-0.158-0.061c-0.047 0-0.087 0.011-0.12 0.034s-0.057 0.050-0.074 0.087c-0.016 0.035-0.024 0.075-0.024 0.119 0 0.042 0.011 0.085 0.032 0.13s0.051 0.090 0.088 0.138c0.008 0.010 0.015 0.020 0.023 0.029zM33.104 29.024h-0.349c-0.010 0.088-0.032 0.163-0.064 0.225s-0.079 0.107-0.141 0.138c-0.061 0.032-0.142 0.047-0.241 0.047-0.082 0-0.152-0.016-0.211-0.049s-0.107-0.079-0.145-0.138c-0.037-0.060-0.065-0.131-0.084-0.213s-0.026-0.177-0.026-0.279v-0.172c0-0.108 0.010-0.204 0.029-0.287s0.051-0.156 0.091-0.213 0.090-0.101 0.149-0.131c0.060-0.030 0.129-0.045 0.209-0.045 0.098 0 0.177 0.017 0.237 0.050s0.106 0.080 0.137 0.142c0.032 0.062 0.052 0.137 0.061 0.225h0.349c-0.014-0.136-0.052-0.256-0.114-0.361s-0.148-0.187-0.26-0.247-0.248-0.089-0.41-0.089c-0.127 0-0.242 0.022-0.345 0.067s-0.188 0.109-0.261 0.194c-0.073 0.084-0.128 0.185-0.167 0.303s-0.057 0.25-0.057 0.396v0.169c0 0.146 0.019 0.278 0.056 0.396s0.093 0.219 0.165 0.303c0.072 0.083 0.158 0.147 0.258 0.192s0.213 0.067 0.339 0.067c0.164 0 0.303-0.030 0.417-0.089s0.203-0.141 0.266-0.244c0.063-0.104 0.1-0.223 0.112-0.356zM35.042 28.726v-0.112c0-0.154-0.020-0.291-0.061-0.412s-0.097-0.226-0.172-0.311c-0.074-0.087-0.163-0.152-0.266-0.197s-0.218-0.068-0.343-0.068c-0.125 0-0.239 0.023-0.342 0.068s-0.191 0.11-0.266 0.197c-0.074 0.086-0.132 0.189-0.173 0.311s-0.061 0.258-0.061 0.412v0.112c0 0.153 0.020 0.291 0.061 0.413s0.1 0.226 0.176 0.311c0.075 0.086 0.164 0.151 0.266 0.197s0.217 0.067 0.342 0.067c0.126 0 0.24-0.022 0.343-0.067s0.192-0.111 0.265-0.197c0.074-0.086 0.132-0.189 0.172-0.311s0.060-0.259 0.060-0.413zM34.691 28.611v0.114c0 0.113-0.011 0.214-0.033 0.301s-0.053 0.161-0.095 0.222c-0.042 0.060-0.093 0.105-0.154 0.135s-0.13 0.045-0.208 0.045c-0.077 0-0.146-0.015-0.206-0.045s-0.112-0.076-0.156-0.135c-0.043-0.060-0.075-0.134-0.098-0.222s-0.033-0.188-0.033-0.301v-0.114c0-0.113 0.011-0.213 0.033-0.3 0.022-0.087 0.054-0.16 0.096-0.219s0.094-0.104 0.155-0.134c0.060-0.031 0.129-0.046 0.206-0.046s0.147 0.015 0.208 0.046c0.061 0.030 0.113 0.074 0.155 0.134s0.075 0.132 0.096 0.219c0.022 0.086 0.033 0.186 0.033 0.3z"></path>
</symbol>

<symbol id="icon-Logo-2" viewBox="0 0 63 32">
<path d="M29.779 2.82h-0.078c-0.12-0.007-0.24-0.010-0.36-0.013v0h-0.26c-0.227 0-0.458 0.006-0.688 0.017-0.017-0.001-0.035-0.001-0.052 0-2.082 0.118-4.123 0.639-6.009 1.533l-0.247 0.119v12.652l0.578-0.196c0.507-0.174 1.048-0.331 1.607-0.477 1.512-0.388 3.065-0.595 4.626-0.615v1.662c-0.207 0.002-0.408 0.007-0.609 0.017h-0.048c-1.201 0.066-2.393 0.249-3.559 0.546-1.477 0.37-2.901 0.925-4.24 1.652v-16.227c1.39-0.811 2.888-1.42 4.448-1.809 1.37-0.354 2.778-0.535 4.192-0.541h0.244c0.292 0.007 0.577 0.020 0.844 0.041 0.705 0.049 1.404 0.161 2.089 0.333v1.636c-0.666-0.155-1.342-0.257-2.024-0.305-0.014-0.001-0.028-0.002-0.042-0.004-0.141-0.012-0.282-0.024-0.414-0.024zM32.659 4.492c0.363 0.028 0.739 0.041 1.119 0.041 1.487-0.005 2.967-0.195 4.407-0.565 1.476-0.371 2.9-0.927 4.238-1.654v15.938c-1.391 0.81-2.889 1.419-4.449 1.809-1.37 0.352-2.778 0.533-4.192 0.539-1.071 0.009-2.14-0.117-3.18-0.375v-16.041c0.246 0.057 0.499 0.109 0.756 0.153 0.422 0.071 0.867 0.123 1.301 0.155zM40.77 4.616l-0.578 0.195c-0.532 0.179-1.068 0.339-1.607 0.481-1.57 0.403-3.183 0.61-4.804 0.616-0.377 0-0.724-0.010-1.060-0.032l-0.461-0.030v13.015l0.396 0.035c0.367 0.032 0.746 0.048 1.128 0.048 1.276-0.005 2.547-0.17 3.783-0.49 1.018-0.255 2.008-0.611 2.956-1.062l0.247-0.119v-12.656z"></path>
<path d="M21.564 25.264c-0.083-0.086-0.183-0.154-0.294-0.199s-0.23-0.066-0.349-0.061c-0.127-0.002-0.253 0.022-0.372 0.070-0.108 0.043-0.207 0.108-0.289 0.19-0.082 0.083-0.145 0.182-0.186 0.291-0.045 0.114-0.068 0.236-0.067 0.359v2.168c-0.005 0.153 0.024 0.305 0.085 0.445 0.051 0.111 0.125 0.21 0.217 0.291 0.087 0.073 0.188 0.126 0.298 0.154 0.105 0.030 0.214 0.045 0.324 0.045 0.121 0.001 0.24-0.025 0.35-0.076 0.108-0.047 0.207-0.116 0.289-0.201 0.081-0.084 0.145-0.183 0.189-0.291 0.046-0.109 0.070-0.227 0.069-0.346v-0.243h-0.567v0.193c0.002 0.066-0.010 0.132-0.033 0.193-0.018 0.046-0.047 0.088-0.082 0.122-0.035 0.028-0.075 0.050-0.119 0.063-0.038 0.013-0.078 0.020-0.119 0.020-0.051 0.006-0.102-0.002-0.149-0.022s-0.087-0.053-0.117-0.094c-0.053-0.087-0.080-0.188-0.075-0.291v-2.021c-0.004-0.112 0.020-0.223 0.069-0.324 0.029-0.046 0.071-0.082 0.12-0.105s0.104-0.032 0.157-0.025c0.049-0.002 0.097 0.008 0.141 0.030s0.082 0.053 0.112 0.092c0.063 0.083 0.097 0.186 0.094 0.291v0.188h0.561v-0.221c0.001-0.13-0.022-0.258-0.069-0.379-0.042-0.114-0.106-0.217-0.189-0.305z"></path>
<path d="M24.931 25.239c-0.181-0.153-0.409-0.237-0.645-0.238-0.115 0-0.23 0.021-0.338 0.061-0.11 0.039-0.212 0.1-0.299 0.177-0.094 0.084-0.169 0.188-0.22 0.304-0.057 0.132-0.085 0.276-0.082 0.42v2.079c-0.004 0.146 0.024 0.292 0.082 0.426 0.051 0.112 0.126 0.211 0.22 0.291 0.087 0.080 0.188 0.143 0.299 0.183 0.108 0.040 0.223 0.061 0.338 0.061s0.23-0.021 0.338-0.061c0.113-0.041 0.217-0.103 0.306-0.183 0.090-0.081 0.163-0.18 0.214-0.291 0.058-0.134 0.086-0.279 0.082-0.426v-2.079c0.003-0.144-0.025-0.288-0.082-0.42-0.050-0.115-0.123-0.218-0.214-0.304zM24.666 28.043c0.005 0.055-0.003 0.111-0.022 0.163s-0.050 0.099-0.090 0.138c-0.075 0.063-0.169 0.097-0.267 0.097s-0.192-0.034-0.267-0.097c-0.040-0.038-0.071-0.085-0.090-0.138s-0.027-0.108-0.022-0.163v-2.079c-0.005-0.055 0.003-0.111 0.022-0.163s0.050-0.099 0.090-0.138c0.075-0.063 0.169-0.097 0.267-0.097s0.192 0.034 0.267 0.097c0.040 0.038 0.071 0.085 0.090 0.138s0.027 0.108 0.022 0.163v2.079z"></path>
<path d="M29.353 28.971v-3.936h-0.545l-0.716 2.084h-0.010l-0.721-2.084h-0.539v3.936h0.562v-2.395h0.010l0.551 1.693h0.28l0.555-1.693h0.010v2.395h0.562z"></path>
<path d="M32.547 25.311c-0.087-0.097-0.196-0.171-0.318-0.215-0.132-0.043-0.269-0.063-0.408-0.061h-0.836v3.936h0.561v-1.537h0.289c0.175 0.008 0.349-0.029 0.506-0.108 0.127-0.071 0.234-0.175 0.308-0.301 0.065-0.105 0.109-0.221 0.129-0.343 0.022-0.148 0.032-0.298 0.030-0.448 0.005-0.189-0.013-0.378-0.055-0.562-0.037-0.136-0.108-0.261-0.207-0.362zM32.258 26.511c-0.002 0.071-0.020 0.141-0.052 0.205-0.032 0.061-0.083 0.109-0.145 0.138-0.083 0.037-0.174 0.054-0.265 0.049h-0.256v-1.338h0.289c0.087-0.004 0.174 0.013 0.253 0.049 0.058 0.033 0.104 0.084 0.132 0.145 0.031 0.069 0.047 0.144 0.049 0.219 0 0.083 0 0.17 0 0.262s0.006 0.186 0 0.27h-0.006z"></path>
<path d="M35.204 25.035h-0.46l-0.867 3.936h0.561l0.165-0.846h0.765l0.165 0.846h0.561l-0.889-3.936zM34.687 27.589l0.276-1.427h0.010l0.275 1.427h-0.561z"></path>
<path d="M38.828 27.406h-0.010l-0.847-2.371h-0.539v3.936h0.561v-2.367h0.012l0.857 2.367h0.528v-3.936h-0.561v2.371z"></path>
<path d="M42.255 25.035l-0.451 1.565h-0.012l-0.451-1.565h-0.594l0.77 2.273v1.664h0.561v-1.664l0.77-2.273h-0.594z"></path>
<path d="M20 30.082h0.27v0.759h0.184v-0.759h0.269v-0.155h-0.723v0.155z"></path>
<path d="M22.273 29.927l-0.354 0.914h0.195l0.075-0.208h0.364l0.078 0.208h0.2l-0.363-0.914h-0.195zM22.244 30.479l0.124-0.339 0.124 0.339h-0.249z"></path>
<path d="M24.519 30.504h0.211v0.118c-0.062 0.049-0.138 0.076-0.217 0.077-0.037 0.002-0.074-0.005-0.107-0.020s-0.063-0.038-0.086-0.067c-0.048-0.070-0.072-0.154-0.068-0.238 0-0.203 0.088-0.305 0.263-0.305 0.046-0.005 0.092 0.008 0.13 0.034s0.065 0.066 0.077 0.111l0.181-0.035c-0.039-0.179-0.168-0.269-0.387-0.269-0.117-0.003-0.232 0.039-0.319 0.118-0.046 0.045-0.082 0.1-0.104 0.161s-0.032 0.126-0.027 0.19c-0.005 0.125 0.036 0.248 0.117 0.343 0.045 0.046 0.099 0.082 0.159 0.105s0.124 0.033 0.188 0.029c0.143 0.004 0.282-0.048 0.387-0.145v-0.36h-0.396v0.154z"></path>
<path d="M26.813 29.927h-0.185v0.914h0.64v-0.155h-0.455v-0.759z"></path>
<path d="M28.753 29.927h-0.185v0.914h0.185v-0.914z"></path>
<path d="M30.65 30.537l-0.374-0.61h-0.179v0.914h0.172v-0.597l0.367 0.597h0.184v-0.914h-0.169v0.61z"></path>
<path d="M32.364 30.438h0.455v-0.155h-0.455v-0.201h0.49v-0.155h-0.675v0.914h0.694v-0.155h-0.509v-0.247z"></path>
<path d="M36.521 30.287h-0.36v-0.36h-0.184v0.914h0.184v-0.4h0.36v0.4h0.184v-0.914h-0.184v0.36z"></path>
<path d="M38.246 30.438h0.457v-0.155h-0.457v-0.201h0.492v-0.155h-0.675v0.914h0.692v-0.155h-0.509v-0.247z"></path>
<path d="M40.585 30.439c0.159-0.025 0.24-0.109 0.24-0.254 0.005-0.039-0.001-0.078-0.017-0.114s-0.041-0.067-0.073-0.089c-0.083-0.042-0.175-0.060-0.267-0.054h-0.387v0.914h0.184v-0.382h0.036c0.039-0.002 0.078 0.005 0.114 0.020 0.027 0.017 0.049 0.040 0.065 0.067l0.2 0.291h0.22l-0.111-0.179c-0.049-0.088-0.119-0.163-0.202-0.219zM40.4 30.312h-0.136v-0.23h0.145c0.063-0.005 0.126 0.002 0.186 0.022 0.013 0.012 0.024 0.026 0.031 0.043s0.010 0.034 0.009 0.052c-0.001 0.018-0.006 0.035-0.014 0.051s-0.020 0.029-0.035 0.040c-0.060 0.018-0.123 0.026-0.186 0.022z"></path>
<path d="M42.349 30.438h0.455v-0.155h-0.455v-0.201h0.492v-0.155h-0.676v0.914h0.694v-0.155h-0.509v-0.247z"></path>
</symbol>

<symbol id="icon-Logo-3" viewBox="0 0 66 32">
<path d="M10.833 9.77h-0.002c-1.862 0-3.371 1.361-3.371 3.040v0.002c0 1.679 1.509 3.040 3.371 3.040h0.002c1.862 0 3.371-1.361 3.371-3.040v-0.002c0-1.679-1.509-3.040-3.371-3.040z"></path>
<path d="M35.718 8.798c-0.005-2.332-1.035-4.567-2.863-6.215s-4.307-2.578-6.893-2.583v0c-2.587 0.004-5.067 0.932-6.896 2.582s-2.86 3.884-2.865 6.217v12.858c0 0 19.515-1.96 19.517-12.856v-0.002z"></path>
<path d="M0.626 25.877c0.005 1.622 0.721 3.177 1.994 4.325s2.996 1.794 4.796 1.799c1.799-0.005 3.523-0.651 4.795-1.798s1.989-2.701 1.994-4.323v-8.947c0 0-13.579 1.365-13.579 8.945zM7.415 27.48c-0.352 0-0.695-0.094-0.988-0.27s-0.52-0.426-0.655-0.719-0.17-0.615-0.101-0.926c0.069-0.311 0.238-0.597 0.487-0.821s0.565-0.377 0.91-0.439c0.345-0.062 0.702-0.030 1.027 0.091s0.603 0.327 0.798 0.59c0.195 0.264 0.3 0.573 0.3 0.891 0.001 0.211-0.044 0.42-0.133 0.615s-0.22 0.373-0.385 0.522c-0.165 0.149-0.361 0.268-0.578 0.349s-0.448 0.123-0.682 0.123v-0.006z"></path>
<path d="M19.832 24.597v3.329h-0.686v-3.329h0.686zM21.159 26.019v0.535h-1.514v-0.535h1.514zM21.319 24.597v0.537h-1.674v-0.537h1.674zM24.451 26.184v0.158c0 0.253-0.034 0.48-0.103 0.681s-0.165 0.373-0.29 0.515c-0.125 0.14-0.274 0.248-0.448 0.322-0.172 0.075-0.364 0.112-0.574 0.112-0.209 0-0.4-0.037-0.574-0.112-0.172-0.075-0.322-0.182-0.448-0.322-0.127-0.142-0.225-0.313-0.295-0.514-0.069-0.201-0.103-0.428-0.103-0.681v-0.158c0-0.255 0.034-0.482 0.103-0.681 0.069-0.201 0.165-0.373 0.29-0.514 0.127-0.142 0.276-0.25 0.448-0.325 0.174-0.075 0.365-0.112 0.574-0.112 0.21 0 0.402 0.037 0.574 0.112 0.174 0.075 0.323 0.183 0.448 0.325 0.127 0.142 0.224 0.313 0.293 0.514 0.070 0.2 0.105 0.427 0.105 0.681zM23.758 26.342v-0.162c0-0.177-0.016-0.332-0.048-0.466s-0.079-0.247-0.142-0.338c-0.063-0.091-0.139-0.16-0.229-0.206-0.090-0.047-0.193-0.071-0.309-0.071s-0.219 0.024-0.309 0.071c-0.088 0.046-0.164 0.114-0.226 0.206-0.061 0.091-0.107 0.204-0.139 0.338s-0.048 0.29-0.048 0.466v0.162c0 0.175 0.016 0.331 0.048 0.466 0.032 0.134 0.079 0.248 0.142 0.341 0.062 0.091 0.139 0.161 0.229 0.208s0.193 0.071 0.309 0.071c0.116 0 0.219-0.024 0.309-0.071s0.165-0.117 0.226-0.208c0.061-0.093 0.107-0.207 0.139-0.341 0.032-0.136 0.048-0.291 0.048-0.466zM26.678 27.055c0-0.059-0.009-0.113-0.027-0.16-0.017-0.049-0.049-0.093-0.096-0.133-0.047-0.041-0.114-0.082-0.199-0.121s-0.196-0.081-0.332-0.123c-0.151-0.049-0.294-0.104-0.43-0.165-0.134-0.061-0.253-0.132-0.357-0.213-0.102-0.082-0.183-0.178-0.242-0.286-0.058-0.108-0.087-0.234-0.087-0.377 0-0.139 0.030-0.264 0.091-0.377 0.061-0.114 0.146-0.212 0.256-0.293 0.11-0.082 0.239-0.146 0.389-0.19 0.151-0.044 0.316-0.066 0.496-0.066 0.245 0 0.46 0.044 0.642 0.133s0.325 0.21 0.425 0.364c0.102 0.154 0.153 0.33 0.153 0.528h-0.681c0-0.098-0.021-0.183-0.062-0.256-0.040-0.075-0.101-0.133-0.183-0.176-0.081-0.043-0.183-0.064-0.306-0.064-0.119 0-0.218 0.018-0.297 0.055-0.079 0.035-0.139 0.083-0.178 0.144-0.040 0.059-0.059 0.127-0.059 0.201 0 0.056 0.014 0.107 0.041 0.153 0.029 0.046 0.072 0.088 0.128 0.128s0.126 0.077 0.208 0.112c0.082 0.035 0.178 0.069 0.286 0.103 0.181 0.055 0.341 0.117 0.478 0.185 0.139 0.069 0.255 0.146 0.348 0.231s0.163 0.182 0.21 0.29c0.047 0.108 0.071 0.231 0.071 0.368 0 0.145-0.028 0.274-0.085 0.389s-0.138 0.211-0.245 0.29c-0.107 0.079-0.234 0.139-0.382 0.181s-0.313 0.062-0.496 0.062c-0.165 0-0.327-0.021-0.487-0.064-0.16-0.044-0.306-0.111-0.437-0.199-0.13-0.088-0.233-0.201-0.311-0.338s-0.117-0.3-0.117-0.487h0.688c0 0.104 0.016 0.191 0.048 0.263s0.077 0.13 0.135 0.174c0.059 0.044 0.13 0.076 0.21 0.096 0.082 0.020 0.172 0.030 0.27 0.030 0.119 0 0.216-0.017 0.293-0.050 0.078-0.034 0.135-0.080 0.171-0.14 0.038-0.059 0.057-0.127 0.057-0.201zM29.319 24.597v3.329h-0.684v-3.329h0.684zM30.344 24.597v0.537h-2.716v-0.537h2.716zM32.969 27.391v0.535h-1.772v-0.535h1.772zM31.421 24.597v3.329h-0.686v-3.329h0.686zM32.738 25.953v0.521h-1.541v-0.521h1.541zM32.966 24.597v0.537h-1.77v-0.537h1.77zM33.369 24.597h1.242c0.255 0 0.473 0.038 0.656 0.114 0.184 0.076 0.326 0.189 0.425 0.338s0.149 0.333 0.149 0.551c0 0.178-0.031 0.332-0.091 0.46-0.059 0.127-0.144 0.233-0.254 0.318-0.108 0.084-0.235 0.151-0.382 0.201l-0.217 0.114h-1.079l-0.005-0.535h0.803c0.12 0 0.22-0.021 0.3-0.064s0.139-0.102 0.178-0.178c0.041-0.076 0.062-0.165 0.062-0.265 0-0.107-0.020-0.199-0.059-0.277s-0.1-0.137-0.181-0.178c-0.081-0.041-0.182-0.062-0.304-0.062h-0.556v2.792h-0.686v-3.329zM35.23 27.926l-0.759-1.484 0.725-0.005 0.768 1.457v0.032h-0.734zM38.832 26.74h-0.848v-0.535h0.848c0.131 0 0.238-0.021 0.32-0.064 0.082-0.044 0.143-0.105 0.181-0.183s0.057-0.165 0.057-0.263c0-0.099-0.019-0.191-0.057-0.277s-0.098-0.154-0.181-0.206-0.189-0.078-0.32-0.078h-0.611v2.792h-0.686v-3.329h1.296c0.261 0 0.484 0.047 0.67 0.142 0.188 0.093 0.331 0.222 0.43 0.386s0.149 0.353 0.149 0.565c0 0.215-0.049 0.401-0.149 0.558s-0.242 0.278-0.43 0.364c-0.186 0.085-0.409 0.128-0.67 0.128zM42.787 27.391v0.535h-1.772v-0.535h1.772zM41.239 24.597v3.329h-0.686v-3.329h0.686zM42.556 25.953v0.521h-1.541v-0.521h1.541zM42.785 24.597v0.537h-1.77v-0.537h1.77zM44.722 24.597v3.329h-0.684v-3.329h0.684zM45.746 24.597v0.537h-2.717v-0.537h2.716zM48.371 27.391v0.535h-1.772v-0.535h1.772zM46.823 24.597v3.329h-0.686v-3.329h0.686zM48.14 25.953v0.521h-1.541v-0.521h1.541zM48.369 24.597v0.537h-1.77v-0.537h1.77zM48.771 24.597h1.242c0.255 0 0.473 0.038 0.656 0.114 0.184 0.076 0.326 0.189 0.425 0.338s0.149 0.333 0.149 0.551c0 0.178-0.031 0.332-0.091 0.46-0.059 0.127-0.144 0.233-0.254 0.318-0.108 0.084-0.236 0.151-0.382 0.201l-0.217 0.114h-1.079l-0.005-0.535h0.803c0.12 0 0.22-0.021 0.3-0.064s0.139-0.102 0.178-0.178c0.041-0.076 0.062-0.165 0.062-0.265 0-0.107-0.020-0.199-0.059-0.277s-0.1-0.137-0.181-0.178c-0.081-0.041-0.182-0.062-0.304-0.062h-0.556v2.792h-0.686v-3.329zM50.633 27.926l-0.759-1.484 0.725-0.005 0.768 1.457v0.032h-0.734zM53.505 27.055c0-0.059-0.009-0.113-0.027-0.16-0.017-0.049-0.049-0.093-0.096-0.133-0.047-0.041-0.114-0.082-0.199-0.121s-0.196-0.081-0.332-0.123c-0.151-0.049-0.294-0.104-0.43-0.165-0.134-0.061-0.253-0.132-0.357-0.213-0.102-0.082-0.183-0.178-0.242-0.286-0.058-0.108-0.087-0.234-0.087-0.377 0-0.139 0.030-0.264 0.091-0.377 0.061-0.114 0.146-0.212 0.256-0.293 0.11-0.082 0.239-0.146 0.389-0.19 0.151-0.044 0.316-0.066 0.496-0.066 0.245 0 0.46 0.044 0.642 0.133s0.325 0.21 0.425 0.364c0.102 0.154 0.153 0.33 0.153 0.528h-0.681c0-0.098-0.021-0.183-0.062-0.256-0.040-0.075-0.101-0.133-0.183-0.176-0.081-0.043-0.183-0.064-0.306-0.064-0.119 0-0.218 0.018-0.297 0.055-0.079 0.035-0.139 0.083-0.178 0.144-0.040 0.059-0.059 0.127-0.059 0.201 0 0.056 0.014 0.107 0.041 0.153 0.029 0.046 0.072 0.088 0.128 0.128s0.126 0.077 0.208 0.112c0.082 0.035 0.178 0.069 0.286 0.103 0.181 0.055 0.341 0.117 0.478 0.185 0.139 0.069 0.255 0.146 0.348 0.231s0.163 0.182 0.21 0.29c0.047 0.108 0.071 0.231 0.071 0.368 0 0.145-0.028 0.274-0.085 0.389s-0.138 0.211-0.245 0.29c-0.107 0.079-0.234 0.139-0.382 0.181s-0.313 0.062-0.496 0.062c-0.165 0-0.327-0.021-0.487-0.064-0.16-0.044-0.306-0.111-0.437-0.199-0.13-0.088-0.233-0.201-0.311-0.338s-0.117-0.3-0.117-0.487h0.688c0 0.104 0.016 0.191 0.048 0.263s0.077 0.13 0.135 0.174c0.059 0.044 0.13 0.076 0.21 0.096 0.082 0.020 0.172 0.030 0.27 0.030 0.119 0 0.216-0.017 0.293-0.050 0.078-0.034 0.135-0.080 0.171-0.14 0.038-0.059 0.057-0.127 0.057-0.201z"></path>
</symbol>

<symbol id="icon-Logo-4" viewBox="0 0 63 32">
<path d="M22.749 27.556c0.009 0 0.018 0.002 0.027 0.005s0.016 0.008 0.022 0.014l0.126 0.119c-0.098 0.096-0.219 0.173-0.355 0.225-0.159 0.057-0.331 0.085-0.503 0.081-0.162 0.003-0.323-0.023-0.473-0.076-0.135-0.048-0.257-0.121-0.357-0.213-0.102-0.095-0.18-0.207-0.23-0.329-0.055-0.136-0.082-0.278-0.080-0.422-0.002-0.144 0.027-0.288 0.087-0.423 0.055-0.122 0.138-0.234 0.244-0.329 0.108-0.093 0.237-0.166 0.379-0.214 0.155-0.051 0.321-0.077 0.487-0.076 0.155-0.003 0.309 0.020 0.453 0.069 0.125 0.046 0.24 0.111 0.339 0.19l-0.106 0.127c-0.007 0.009-0.016 0.017-0.027 0.023-0.012 0.007-0.028 0.011-0.043 0.009-0.016-0.001-0.032-0.006-0.046-0.014l-0.057-0.034-0.079-0.043c-0.034-0.016-0.069-0.030-0.106-0.042-0.047-0.014-0.095-0.026-0.144-0.034-0.062-0.010-0.125-0.014-0.188-0.013-0.12-0.001-0.239 0.018-0.35 0.057-0.104 0.036-0.197 0.090-0.274 0.159-0.079 0.073-0.139 0.16-0.178 0.253-0.044 0.107-0.066 0.22-0.065 0.334-0.002 0.116 0.020 0.231 0.065 0.34 0.038 0.093 0.098 0.179 0.175 0.252 0.072 0.068 0.162 0.122 0.262 0.156 0.103 0.037 0.213 0.055 0.325 0.054 0.064 0.001 0.129-0.003 0.192-0.011 0.104-0.011 0.204-0.042 0.292-0.090 0.044-0.025 0.086-0.053 0.125-0.084 0.016-0.013 0.038-0.021 0.060-0.022z"></path>
<path d="M26.392 26.96c0.002 0.143-0.027 0.285-0.085 0.419-0.051 0.122-0.132 0.233-0.238 0.325s-0.232 0.166-0.373 0.214c-0.309 0.101-0.65 0.101-0.959 0-0.14-0.049-0.266-0.122-0.371-0.214-0.105-0.095-0.187-0.206-0.24-0.329-0.114-0.271-0.114-0.568 0-0.84 0.054-0.122 0.135-0.235 0.24-0.33 0.106-0.090 0.232-0.16 0.371-0.206 0.308-0.102 0.651-0.102 0.959 0 0.14 0.049 0.267 0.122 0.372 0.214 0.104 0.094 0.185 0.204 0.238 0.325 0.058 0.135 0.087 0.278 0.085 0.422zM26.061 26.96c0.003-0.114-0.018-0.228-0.060-0.337-0.035-0.093-0.093-0.179-0.169-0.252-0.074-0.069-0.165-0.124-0.267-0.159-0.224-0.074-0.473-0.074-0.697 0-0.102 0.035-0.193 0.090-0.267 0.159-0.077 0.073-0.135 0.159-0.17 0.252-0.080 0.219-0.080 0.454 0 0.674 0.036 0.093 0.094 0.179 0.17 0.252 0.074 0.069 0.165 0.123 0.267 0.158 0.225 0.072 0.472 0.072 0.697 0 0.101-0.035 0.192-0.089 0.267-0.158 0.076-0.073 0.133-0.159 0.169-0.252 0.042-0.109 0.063-0.223 0.060-0.337z"></path>
<path d="M28.878 27.314l0.033 0.076c0.013-0.027 0.024-0.051 0.036-0.076s0.026-0.050 0.041-0.074l0.806-1.252c0.016-0.022 0.030-0.035 0.046-0.039 0.021-0.006 0.044-0.008 0.066-0.007h0.238v2.036h-0.282v-1.497c0-0.019 0-0.040 0-0.063-0.002-0.023-0.002-0.047 0-0.070l-0.811 1.269c-0.010 0.019-0.027 0.035-0.047 0.046s-0.045 0.017-0.069 0.017h-0.046c-0.025 0-0.049-0.006-0.069-0.017s-0.037-0.027-0.047-0.047l-0.834-1.277c0 0.024 0 0.049 0 0.073s0 0.046 0 0.065v1.497h-0.273v-2.032h0.238c0.022-0.001 0.045 0.001 0.066 0.007 0.020 0.008 0.035 0.022 0.044 0.039l0.823 1.253c0.016 0.023 0.030 0.047 0.041 0.073z"></path>
<path d="M31.911 27.212v0.763h-0.315v-2.034h0.704c0.133-0.002 0.265 0.013 0.393 0.044 0.102 0.025 0.197 0.068 0.278 0.127 0.070 0.055 0.124 0.123 0.158 0.199 0.037 0.083 0.055 0.171 0.054 0.26 0.001 0.089-0.018 0.178-0.058 0.26-0.038 0.078-0.096 0.148-0.17 0.203-0.081 0.061-0.176 0.107-0.279 0.135-0.123 0.034-0.251 0.049-0.38 0.047l-0.382-0.005zM31.911 26.994h0.382c0.083 0.001 0.166-0.010 0.245-0.031 0.065-0.019 0.125-0.049 0.177-0.088 0.047-0.037 0.084-0.083 0.107-0.135 0.026-0.054 0.039-0.113 0.038-0.171 0.004-0.057-0.007-0.113-0.032-0.166s-0.062-0.1-0.11-0.139c-0.12-0.080-0.272-0.119-0.424-0.109h-0.382v0.838z"></path>
<path d="M36.151 27.978h-0.249c-0.025 0.001-0.050-0.006-0.069-0.019-0.018-0.013-0.032-0.029-0.041-0.047l-0.215-0.492h-1.077l-0.222 0.492c-0.008 0.018-0.022 0.034-0.039 0.046-0.020 0.014-0.045 0.021-0.071 0.020h-0.249l0.946-2.036h0.328l0.959 2.036zM34.589 27.222h0.89l-0.375-0.829c-0.029-0.062-0.052-0.126-0.071-0.191l-0.036 0.106c-0.011 0.032-0.024 0.062-0.035 0.086l-0.372 0.828z"></path>
<path d="M37.514 25.951c0.019 0.009 0.035 0.021 0.047 0.036l1.38 1.535c0-0.024 0-0.049 0-0.071s0-0.046 0-0.067v-1.442h0.282v2.036h-0.158c-0.022 0.001-0.045-0.004-0.065-0.012-0.020-0.010-0.037-0.023-0.050-0.038l-1.379-1.534c0.002 0.023 0.002 0.047 0 0.070 0 0.023 0 0.043 0 0.062v1.452h-0.282v-2.036h0.167c0.020-0 0.039 0.003 0.057 0.009z"></path>
<path d="M41.549 27.168v0.809h-0.316v-0.809l-0.872-1.226h0.282c0.024-0.001 0.048 0.005 0.068 0.018 0.017 0.013 0.032 0.029 0.043 0.046l0.546 0.791c0.022 0.034 0.041 0.065 0.057 0.094s0.028 0.058 0.039 0.086l0.041-0.088c0.015-0.032 0.033-0.063 0.054-0.093l0.538-0.797c0.011-0.016 0.025-0.030 0.041-0.043 0.019-0.014 0.043-0.021 0.068-0.020h0.285l-0.874 1.232z"></path>
<path d="M28.722 22.524c0.137 0.015 0.276 0.027 0.416 0.038 2.128-0.813 3.929-2.145 5.176-3.828s1.887-3.643 1.838-5.634l-2.346-2.004c0.477 2.12 0.254 4.313-0.644 6.331s-2.436 3.783-4.441 5.098z"></path>
<path d="M27.884 22.431l0.063 0.011c2.143-1.31 3.776-3.138 4.69-5.25s1.064-4.408 0.433-6.594l-3.341-2.854c1.351 2.346 1.895 4.972 1.568 7.572s-1.511 5.067-3.414 7.115z"></path>
<path d="M39.215 15.453c-0.568 2.188-1.946 4.162-3.931 5.628-0.58 0.43-1.205 0.814-1.868 1.145 1.616-0.406 3.102-1.123 4.342-2.097s2.202-2.178 2.812-3.52l-1.355-1.156z"></path>
<path d="M38.683 15.131l-1.929-1.648c-0.037 1.879-0.662 3.716-1.811 5.318s-2.779 2.914-4.721 3.796h0.009c0.433-0 0.865-0.022 1.295-0.066 1.815-0.633 3.419-1.64 4.667-2.931s2.104-2.827 2.489-4.469z"></path>
<path d="M28.163 6.54l-2.301-1.969c-2.057 0.679-3.827 1.873-5.077 3.426s-1.922 3.392-1.928 5.276v0c0.008 2.082 0.828 4.103 2.331 5.742s3.603 2.803 5.967 3.308c2.111-2.197 3.346-4.912 3.528-7.75s-0.701-5.652-2.52-8.032z"></path>
<path d="M44 14.827c-0.008-2.47-1.161-4.838-3.205-6.585s-4.815-2.731-7.707-2.739c-1.336-0.001-2.661 0.209-3.907 0.621l14.090 12.039c0.482-1.064 0.73-2.196 0.729-3.337z"></path>
</symbol>
<symbol id="icon-Logo-5" viewBox="0 0 63 32">
<path d="M31.653 15.244c-0.254-0.338-0.375-0.737-0.346-1.138v-1.65c0-0.506 0.115-0.89 0.344-1.153s0.624-0.394 1.183-0.393c0.525 0 0.898 0.112 1.119 0.336 0.24 0.286 0.358 0.635 0.331 0.987v0.388h-0.94v-0.393c0.003-0.129-0.006-0.257-0.027-0.384-0.014-0.087-0.061-0.168-0.134-0.228-0.096-0.066-0.218-0.097-0.34-0.089-0.129-0.008-0.256 0.025-0.358 0.094-0.082 0.067-0.136 0.156-0.156 0.252-0.027 0.135-0.039 0.271-0.037 0.408v2.003c-0.015 0.193 0.027 0.387 0.121 0.562 0.047 0.060 0.112 0.107 0.188 0.136s0.16 0.041 0.242 0.032c0.12 0.009 0.24-0.024 0.333-0.091 0.077-0.066 0.126-0.151 0.14-0.243 0.022-0.133 0.032-0.267 0.029-0.401v-0.406h0.94v0.371c0.026 0.367-0.088 0.732-0.325 1.038-0.216 0.245-0.584 0.368-1.124 0.368s-0.949-0.131-1.181-0.403z"></path>
<path d="M35.565 15.261c-0.237-0.257-0.356-0.631-0.356-1.127v-1.736c0-0.49 0.119-0.861 0.356-1.113s0.634-0.377 1.191-0.376c0.553 0 0.947 0.125 1.185 0.376 0.237 0.252 0.358 0.623 0.358 1.113v1.736c0 0.49-0.121 0.866-0.362 1.125s-0.634 0.388-1.181 0.388-0.951-0.131-1.191-0.386zM37.194 14.844c0.085-0.161 0.124-0.337 0.113-0.514v-2.125c0.011-0.173-0.027-0.346-0.111-0.504-0.048-0.061-0.114-0.109-0.192-0.138s-0.164-0.040-0.248-0.030c-0.084-0.010-0.17 0-0.248 0.030s-0.145 0.077-0.193 0.138c-0.086 0.157-0.124 0.33-0.113 0.504v2.136c-0.012 0.177 0.027 0.353 0.113 0.514 0.055 0.054 0.122 0.098 0.198 0.127s0.158 0.045 0.242 0.045 0.166-0.015 0.242-0.045c0.076-0.030 0.143-0.073 0.198-0.127v-0.010z"></path>
<path d="M39.429 10.96h1.012l0.761 3.203 0.778-3.203h0.984l0.099 4.623h-0.728l-0.078-3.213-0.751 3.213h-0.584l-0.778-3.225-0.072 3.225h-0.735l0.091-4.623z"></path>
<path d="M44.198 10.96h1.576c0.908 0 1.362 0.438 1.362 1.313 0 0.838-0.478 1.257-1.434 1.256h-0.537v2.055h-0.973l0.006-4.623zM45.544 12.935c0.096 0.011 0.194 0.003 0.286-0.022s0.177-0.067 0.249-0.124c0.112-0.156 0.161-0.339 0.14-0.522 0.005-0.141-0.011-0.282-0.047-0.42-0.014-0.046-0.038-0.089-0.072-0.127s-0.075-0.069-0.123-0.093c-0.135-0.056-0.284-0.081-0.434-0.074h-0.377v1.382h0.377z"></path>
<path d="M48.538 10.96h1.045l1.072 4.623h-0.907l-0.212-1.066h-0.932l-0.218 1.066h-0.92l1.072-4.623zM49.431 13.981l-0.364-1.941-0.364 1.941h0.728z"></path>
<path d="M51.521 10.96h0.681l1.303 2.637v-2.637h0.807v4.623h-0.648l-1.311-2.753v2.753h-0.835l0.002-4.623z"></path>
<path d="M56.204 13.82l-1.084-2.854h0.912l0.661 1.833 0.62-1.833h0.893l-1.070 2.854v1.763h-0.934v-1.763z"></path>
<path d="M33.155 17.604v0.242h-0.794v1.879h-0.333v-1.879h-0.798v-0.242h1.924z"></path>
<path d="M35.643 19.724h-0.257c-0.026 0.001-0.052-0.006-0.072-0.020-0.019-0.012-0.034-0.029-0.043-0.049l-0.23-0.504h-1.101l-0.23 0.504c-0.007 0.021-0.019 0.041-0.035 0.057-0.020 0.014-0.046 0.021-0.072 0.020h-0.257l0.973-2.12h0.339l0.984 2.112zM34.032 18.937h0.918l-0.389-0.863c-0.029-0.065-0.053-0.132-0.072-0.2-0.014 0.040-0.025 0.079-0.037 0.113l-0.035 0.089-0.385 0.861z"></path>
<path d="M37.32 19.516c0.061 0.003 0.122 0.003 0.183 0 0.053-0.005 0.105-0.013 0.156-0.025 0.048-0.010 0.094-0.023 0.14-0.039 0.043-0.015 0.086-0.034 0.13-0.052v-0.477h-0.389c-0.010 0-0.019-0.001-0.028-0.004s-0.017-0.007-0.024-0.013c-0.006-0.005-0.011-0.011-0.015-0.017s-0.005-0.014-0.005-0.021v-0.163h0.755v0.813c-0.062 0.038-0.127 0.072-0.195 0.101-0.069 0.030-0.142 0.054-0.216 0.072-0.080 0.020-0.161 0.035-0.243 0.044-0.094 0.009-0.189 0.014-0.284 0.013-0.168 0.001-0.334-0.026-0.49-0.079-0.146-0.050-0.278-0.126-0.389-0.222-0.108-0.097-0.194-0.211-0.251-0.336-0.061-0.141-0.092-0.29-0.090-0.44-0.002-0.151 0.028-0.301 0.088-0.443 0.056-0.126 0.141-0.24 0.251-0.336 0.111-0.095 0.243-0.17 0.389-0.22 0.167-0.054 0.343-0.081 0.521-0.079 0.091-0 0.181 0.006 0.27 0.018 0.079 0.011 0.157 0.029 0.232 0.054 0.068 0.022 0.133 0.050 0.195 0.084 0.060 0.033 0.116 0.070 0.169 0.111l-0.093 0.131c-0.007 0.012-0.018 0.022-0.032 0.029s-0.029 0.011-0.044 0.011c-0.022-0.001-0.042-0.006-0.060-0.017-0.029-0.013-0.060-0.030-0.095-0.050-0.041-0.022-0.085-0.041-0.13-0.057-0.058-0.020-0.118-0.036-0.179-0.047-0.081-0.013-0.164-0.019-0.247-0.018-0.128-0.001-0.256 0.019-0.376 0.059-0.108 0.038-0.206 0.095-0.286 0.168-0.081 0.076-0.142 0.166-0.181 0.264-0.087 0.23-0.087 0.477 0 0.707 0.043 0.1 0.109 0.191 0.195 0.267 0.080 0.073 0.177 0.13 0.284 0.168 0.124 0.037 0.255 0.051 0.385 0.042z"></path>
<path d="M40.421 19.483h1.062v0.242h-1.387v-2.12h0.333l-0.008 1.879z"></path>
<path d="M42.589 19.724h-0.333v-2.12h0.333v2.12z"></path>
<path d="M43.826 17.614c0.020 0.010 0.037 0.023 0.051 0.039l1.422 1.598c-0.002-0.025-0.002-0.050 0-0.076 0-0.023 0-0.047 0-0.069v-1.511h0.29v2.129h-0.167c-0.025 0.002-0.050-0.002-0.072-0.012-0.020-0.011-0.038-0.024-0.053-0.040l-1.42-1.597c0 0.025 0 0.049 0 0.072s0 0.045 0 0.066v1.511h-0.278v-2.12h0.173c0.019 0 0.037 0.003 0.054 0.010z"></path>
<path d="M48.038 17.604v0.233h-1.179v0.7h0.955v0.225h-0.955v0.724h1.179v0.233h-1.521v-2.115h1.521z"></path>
<path d="M13.176 4.51l14.772 3.619v12.683l-14.772-3.618v-12.685zM12.229 3.429v14.382l16.666 4.084v-14.38l-16.666-4.086z"></path>
<path d="M21.161 28.572l-16.667-4.088v-14.381l16.667 4.086v14.382z"></path>
<path d="M12.505 4.347l14.58 3.574-6.2 5.352-14.582-3.576 6.202-5.35zM12.229 3.429l-7.735 6.675 16.667 4.086 7.734-6.675-16.666-4.086z"></path>
<path d="M22.098 27.762l6.796-5.866-6.796-1.667v7.532z"></path>
</symbol>
<symbol id="icon-Logo-6" viewBox="0 0 63 32">
<path d="M16.36 24.918c0.14 0.156 0.215 0.352 0.211 0.553 0.007 0.131-0.019 0.262-0.075 0.383s-0.143 0.229-0.252 0.316c-0.273 0.185-0.61 0.276-0.951 0.255h-1.671v-3.504h1.637c0.323-0.019 0.644 0.063 0.907 0.233 0.106 0.080 0.189 0.18 0.244 0.294s0.080 0.238 0.073 0.361c0.010 0.193-0.058 0.383-0.19 0.536-0.127 0.139-0.303 0.236-0.498 0.274 0.222 0.036 0.422 0.143 0.565 0.3zM14.399 24.389h0.7c0.159 0.011 0.317-0.031 0.445-0.116 0.053-0.043 0.093-0.096 0.12-0.155s0.037-0.123 0.031-0.187c0.005-0.063-0.006-0.127-0.031-0.186s-0.066-0.113-0.117-0.156c-0.132-0.088-0.295-0.13-0.458-0.118h-0.688v0.919zM15.613 25.733c0.056-0.044 0.1-0.099 0.129-0.161s0.041-0.129 0.036-0.195c0.004-0.068-0.009-0.135-0.038-0.198s-0.074-0.118-0.131-0.162c-0.137-0.091-0.305-0.136-0.475-0.127h-0.734v0.964h0.744c0.167 0.009 0.333-0.034 0.47-0.122z"></path>
<path d="M19.707 26.424l-0.911-1.369h-0.342v1.369h-0.783v-3.504h1.483c0.374-0.023 0.743 0.083 1.032 0.298 0.207 0.19 0.332 0.441 0.353 0.707s-0.066 0.529-0.242 0.743c-0.183 0.189-0.433 0.315-0.707 0.356l0.97 1.4h-0.852zM18.454 24.577h0.641c0.445 0 0.667-0.177 0.667-0.531 0.005-0.072-0.008-0.145-0.036-0.212s-0.072-0.13-0.128-0.181c-0.141-0.105-0.322-0.156-0.504-0.142h-0.648l0.008 1.067z"></path>
<path d="M23.989 25.719h-1.561l-0.276 0.705h-0.822l1.434-3.465h0.888l1.428 3.465h-0.821l-0.27-0.705zM23.78 25.189l-0.57-1.479-0.57 1.479h1.141z"></path>
<path d="M29.349 26.424h-0.778l-1.744-2.383v2.383h-0.776v-3.504h0.776l1.744 2.397v-2.397h0.778v3.504z"></path>
<path d="M33.787 25.586c-0.161 0.265-0.406 0.48-0.704 0.618-0.339 0.154-0.714 0.23-1.093 0.221h-1.384v-3.504h1.384c0.379-0.009 0.754 0.065 1.093 0.216 0.298 0.135 0.543 0.348 0.704 0.611 0.16 0.285 0.243 0.6 0.243 0.919s-0.083 0.634-0.243 0.919zM32.897 25.502c0.222-0.233 0.344-0.529 0.344-0.836s-0.122-0.603-0.344-0.836c-0.268-0.211-0.618-0.318-0.974-0.298h-0.54v2.268h0.54c0.355 0.020 0.705-0.087 0.974-0.298z"></path>
<path d="M24.475 3.429c0 0 10.038 3.412 9.825 8.349v8.351c0 0-10.031-3.413-9.822-8.351l-0.004-8.349z"></path>
<path d="M43.244 18.173c1.896-1.175 4.089-1.902 6.378-2.116v-2.614c-2.638 0.915-4.875 2.575-6.378 4.73z"></path>
<path d="M42.105 18.961c1.552-2.813 4.242-4.983 7.517-6.065v-7.532c0 0-14.296 4.86-13.993 11.891v11.889c0 0 0.637-0.217 1.639-0.625 0-0.38 0-0.764 0.046-1.149 0.296-3.264 2.020-6.289 4.792-8.409z"></path>
<path d="M40.745 23.377c0.075-0.825 0.243-1.64 0.5-2.434-1.726 1.831-2.772 4.103-2.989 6.497-0.021 0.226-0.032 0.452-0.038 0.685 0.812-0.351 1.757-0.789 2.75-1.304-0.253-1.132-0.328-2.291-0.222-3.443z"></path>
<path d="M41.314 23.42c-0.095 1.042-0.036 2.090 0.177 3.117 3.906-2.104 8.294-5.355 8.125-9.284v-0.342c-2.791 0.281-5.401 1.379-7.431 3.126-0.475 1.082-0.769 2.222-0.871 3.383z"></path>
</symbol>

<symbol id="icon-instagram-1" viewBox="0 0 32 32">
<path d="M31.969 9.408c-0.075-1.7-0.35-2.869-0.744-3.882-0.406-1.075-1.032-2.038-1.851-2.838-0.8-0.813-1.769-1.444-2.832-1.844-1.019-0.394-2.182-0.669-3.882-0.744-1.713-0.081-2.257-0.1-6.601-0.1s-4.888 0.019-6.595 0.094c-1.7 0.075-2.869 0.35-3.882 0.744-1.075 0.406-2.038 1.031-2.838 1.85-0.813 0.8-1.444 1.769-1.844 2.832-0.394 1.019-0.669 2.182-0.744 3.882-0.081 1.713-0.1 2.257-0.1 6.601s0.019 4.888 0.094 6.595c0.075 1.7 0.35 2.869 0.744 3.882 0.406 1.075 1.038 2.038 1.85 2.838 0.8 0.813 1.769 1.444 2.832 1.844 1.019 0.394 2.182 0.669 3.882 0.744 1.706 0.075 2.25 0.094 6.595 0.094s4.888-0.019 6.595-0.094c1.7-0.075 2.869-0.35 3.882-0.744 2.151-0.832 3.851-2.532 4.682-4.682 0.394-1.019 0.669-2.182 0.744-3.882 0.075-1.707 0.094-2.251 0.094-6.595s-0.006-4.888-0.081-6.595zM29.087 22.473c-0.069 1.563-0.331 2.407-0.55 2.969-0.538 1.394-1.644 2.5-3.038 3.038-0.563 0.219-1.413 0.481-2.969 0.55-1.688 0.075-2.194 0.094-6.464 0.094s-4.782-0.019-6.464-0.094c-1.563-0.069-2.407-0.331-2.969-0.55-0.694-0.256-1.325-0.663-1.838-1.194-0.531-0.519-0.938-1.144-1.194-1.838-0.219-0.563-0.481-1.413-0.55-2.969-0.075-1.688-0.094-2.194-0.094-6.464s0.019-4.782 0.094-6.464c0.069-1.563 0.331-2.407 0.55-2.969 0.256-0.694 0.663-1.325 1.2-1.838 0.519-0.531 1.144-0.938 1.838-1.194 0.563-0.219 1.413-0.481 2.969-0.55 1.688-0.075 2.194-0.094 6.464-0.094 4.276 0 4.782 0.019 6.464 0.094 1.563 0.069 2.407 0.331 2.969 0.55 0.694 0.256 1.325 0.662 1.838 1.194 0.531 0.519 0.938 1.144 1.194 1.838 0.219 0.563 0.481 1.413 0.55 2.969 0.075 1.688 0.094 2.194 0.094 6.464s-0.019 4.77-0.094 6.458z"></path>
<path d="M16.059 7.783c-4.538 0-8.22 3.682-8.22 8.22s3.682 8.22 8.22 8.22c4.539 0 8.22-3.682 8.22-8.22s-3.682-8.22-8.22-8.22zM16.059 21.335c-2.944 0-5.332-2.388-5.332-5.332s2.388-5.332 5.332-5.332c2.944 0 5.332 2.388 5.332 5.332s-2.388 5.332-5.332 5.332z"></path>
<path d="M26.524 7.458c0 1.060-0.859 1.919-1.919 1.919s-1.919-0.859-1.919-1.919c0-1.060 0.859-1.919 1.919-1.919s1.919 0.859 1.919 1.919z"></path>
</symbol>

<symbol id="icon-twitter-1" viewBox="0 0 32 32">
<path d="M32 6.078c-1.19 0.522-2.458 0.868-3.78 1.036 1.36-0.812 2.398-2.088 2.886-3.626-1.268 0.756-2.668 1.29-4.16 1.588-1.204-1.282-2.92-2.076-4.792-2.076-3.632 0-6.556 2.948-6.556 6.562 0 0.52 0.044 1.020 0.152 1.496-5.454-0.266-10.28-2.88-13.522-6.862-0.566 0.982-0.898 2.106-0.898 3.316 0 2.272 1.17 4.286 2.914 5.452-1.054-0.020-2.088-0.326-2.964-0.808 0 0.020 0 0.046 0 0.072 0 3.188 2.274 5.836 5.256 6.446-0.534 0.146-1.116 0.216-1.72 0.216-0.42 0-0.844-0.024-1.242-0.112 0.85 2.598 3.262 4.508 6.13 4.57-2.232 1.746-5.066 2.798-8.134 2.798-0.538 0-1.054-0.024-1.57-0.090 2.906 1.874 6.35 2.944 10.064 2.944 12.072 0 18.672-10 18.672-18.668 0-0.29-0.010-0.57-0.024-0.848 1.302-0.924 2.396-2.078 3.288-3.406z"></path>
</symbol>

<symbol id="icon-facebook-1" viewBox="0 0 32 32">
<path d="M21.329 5.313h2.921v-5.088c-0.504-0.069-2.237-0.225-4.256-0.225-4.212 0-7.097 2.649-7.097 7.519v4.481h-4.648v5.688h4.648v14.312h5.699v-14.311h4.46l0.708-5.688h-5.169v-3.919c0.001-1.644 0.444-2.769 2.735-2.769z"></path>
</symbol>

<symbol id="icon-linkedin-1" viewBox="0 0 32 32">
<path d="M31.992 32v-0.001h0.008v-11.736c0-5.741-1.236-10.164-7.948-10.164-3.227 0-5.392 1.771-6.276 3.449h-0.093v-2.913h-6.364v21.364h6.627v-10.579c0-2.785 0.528-5.479 3.977-5.479 3.399 0 3.449 3.179 3.449 5.657v10.401h6.62z"></path>
<path d="M0.528 10.636h6.635v21.364h-6.635v-21.364z"></path>
<path d="M3.843 0c-2.121 0-3.843 1.721-3.843 3.843s1.721 3.879 3.843 3.879c2.121 0 3.843-1.757 3.843-3.879-0.001-2.121-1.723-3.843-3.843-3.843v0z"></path>
</symbol>

<symbol id="icon-email-1" viewBox="0 0 43 32">
<path d="M38.667 0h-34.667c-2.206 0-4 1.794-4 3.999v23.992c0 2.205 1.794 3.999 4 3.999h34.667c2.206 0 4-1.794 4-3.999v-23.992c0-2.205-1.794-3.999-4-3.999zM38.667 2.666c0.181 0 0.353 0.038 0.511 0.103l-17.844 15.46-17.844-15.46c0.158-0.066 0.33-0.103 0.511-0.103h34.667zM38.667 29.323h-34.667c-0.736 0-1.333-0.597-1.333-1.333v-22.405l17.793 15.415c0.251 0.217 0.563 0.325 0.874 0.325s0.622-0.108 0.874-0.325l17.793-15.415v22.405c0 0.735-0.598 1.333-1.333 1.333z"></path>
</symbol>

<symbol id="icon-smartphone-1" viewBox="0 0 20 32">
<path d="M17 0h-14c-1.654 0-3 1.346-3 3v26c0 1.654 1.346 3 3 3h14c1.654 0 3-1.346 3-3v-26c0-1.654-1.346-3-3-3zM3 2h14c0.552 0 1 0.448 1 1v21h-16v-21c0-0.552 0.448-1 1-1zM17 30h-14c-0.552 0-1-0.448-1-1v-3h16v3c0 0.552-0.448 1-1 1z"></path>
<path d="M4.707 27.478c0.391 0.365 0.391 0.956 0 1.321s-1.024 0.365-1.414 0c-0.391-0.365-0.391-0.956 0-1.321s1.024-0.365 1.414 0z"></path>
</symbol>
</defs>
</svg>
</defs>
</svg>
